<mxfile host="app.diagrams.net" modified="2023-04-15T11:15:06.915Z" agent="Mozilla/5.0 (Windows NT 10.0; Win64; x64) AppleWebKit/537.36 (KHTML, like Gecko) Chrome/102.0.0.0 Safari/537.36" etag="2xoK9Of1-XZd8VinQ3ka" version="21.1.8" type="github">
  <diagram id="prtHgNgQTEPvFCAcTncT" name="Page-1">
    <mxGraphModel dx="875" dy="458" grid="1" gridSize="10" guides="1" tooltips="1" connect="1" arrows="1" fold="1" page="1" pageScale="1" pageWidth="1169" pageHeight="1654" math="0" shadow="0">
      <root>
        <mxCell id="0" />
        <mxCell id="1" parent="0" />
        <mxCell id="GvcO12NbnAWHYGCYTPuz-1" style="edgeStyle=orthogonalEdgeStyle;rounded=0;orthogonalLoop=1;jettySize=auto;html=1;exitX=1;exitY=1;exitDx=0;exitDy=0;labelBackgroundColor=none;fontColor=default;strokeColor=#EEEEEE;" edge="1" parent="1">
          <mxGeometry relative="1" as="geometry">
            <mxPoint x="770" y="380" as="targetPoint" />
            <mxPoint x="790" y="360" as="sourcePoint" />
          </mxGeometry>
        </mxCell>
        <mxCell id="GvcO12NbnAWHYGCYTPuz-29" style="edgeStyle=orthogonalEdgeStyle;rounded=0;orthogonalLoop=1;jettySize=auto;html=1;exitX=0.5;exitY=1;exitDx=0;exitDy=0;strokeColor=#457B9D;fontColor=#1D3557;fillColor=#A8DADC;" edge="1" parent="1" source="GvcO12NbnAWHYGCYTPuz-5" target="GvcO12NbnAWHYGCYTPuz-17">
          <mxGeometry relative="1" as="geometry" />
        </mxCell>
        <mxCell id="GvcO12NbnAWHYGCYTPuz-5" value="&lt;b&gt;开始&lt;/b&gt;" style="rounded=1;whiteSpace=wrap;html=1;fontSize=12;glass=0;strokeWidth=1;shadow=0;fillColor=#dae8fc;strokeColor=#6c8ebf;" vertex="1" parent="1">
          <mxGeometry x="50" y="350" width="120" height="40" as="geometry" />
        </mxCell>
        <mxCell id="GvcO12NbnAWHYGCYTPuz-6" value="Yes" style="rounded=0;html=1;jettySize=auto;orthogonalLoop=1;fontSize=11;endArrow=block;endFill=0;endSize=8;strokeWidth=1;shadow=0;labelBackgroundColor=none;edgeStyle=orthogonalEdgeStyle;entryX=0.5;entryY=0;entryDx=0;entryDy=0;" edge="1" parent="1" source="GvcO12NbnAWHYGCYTPuz-8" target="GvcO12NbnAWHYGCYTPuz-67">
          <mxGeometry x="-1" y="83" relative="1" as="geometry">
            <mxPoint x="-23" y="-57" as="offset" />
            <mxPoint x="110" y="850" as="targetPoint" />
          </mxGeometry>
        </mxCell>
        <mxCell id="GvcO12NbnAWHYGCYTPuz-95" style="edgeStyle=orthogonalEdgeStyle;rounded=0;orthogonalLoop=1;jettySize=auto;html=1;exitX=1;exitY=0.5;exitDx=0;exitDy=0;strokeColor=#457B9D;fontColor=#1D3557;fillColor=#A8DADC;" edge="1" parent="1" source="GvcO12NbnAWHYGCYTPuz-8">
          <mxGeometry relative="1" as="geometry">
            <mxPoint x="190" y="787" as="targetPoint" />
          </mxGeometry>
        </mxCell>
        <mxCell id="GvcO12NbnAWHYGCYTPuz-8" value="&lt;b&gt;是否进入角色菜单&lt;/b&gt;" style="rhombus;whiteSpace=wrap;html=1;shadow=0;fontFamily=Helvetica;fontSize=12;align=center;strokeWidth=1;spacing=6;spacingTop=-4;fillColor=#f8cecc;strokeColor=#b85450;" vertex="1" parent="1">
          <mxGeometry x="55" y="747" width="110" height="80" as="geometry" />
        </mxCell>
        <mxCell id="GvcO12NbnAWHYGCYTPuz-30" style="edgeStyle=orthogonalEdgeStyle;rounded=0;orthogonalLoop=1;jettySize=auto;html=1;exitX=0.5;exitY=1;exitDx=0;exitDy=0;entryX=0.5;entryY=0;entryDx=0;entryDy=0;strokeColor=#457B9D;fontColor=#1D3557;fillColor=#A8DADC;" edge="1" parent="1" source="GvcO12NbnAWHYGCYTPuz-17" target="GvcO12NbnAWHYGCYTPuz-18">
          <mxGeometry relative="1" as="geometry" />
        </mxCell>
        <mxCell id="GvcO12NbnAWHYGCYTPuz-17" value="&lt;b&gt;点击进入权限目录&lt;/b&gt;" style="rounded=1;whiteSpace=wrap;html=1;fontSize=12;glass=0;strokeWidth=1;shadow=0;fillColor=#dae8fc;strokeColor=#6c8ebf;" vertex="1" parent="1">
          <mxGeometry x="50" y="430" width="120" height="40" as="geometry" />
        </mxCell>
        <mxCell id="GvcO12NbnAWHYGCYTPuz-43" style="edgeStyle=orthogonalEdgeStyle;rounded=0;orthogonalLoop=1;jettySize=auto;html=1;exitX=0.5;exitY=1;exitDx=0;exitDy=0;entryX=0.5;entryY=0;entryDx=0;entryDy=0;strokeColor=#457B9D;fontColor=#1D3557;fillColor=#A8DADC;" edge="1" parent="1" source="GvcO12NbnAWHYGCYTPuz-18" target="GvcO12NbnAWHYGCYTPuz-21">
          <mxGeometry relative="1" as="geometry" />
        </mxCell>
        <mxCell id="GvcO12NbnAWHYGCYTPuz-18" value="&lt;b&gt;展示权限菜单&lt;/b&gt;" style="rounded=1;whiteSpace=wrap;html=1;fontSize=12;glass=0;strokeWidth=1;shadow=0;fillColor=#dae8fc;strokeColor=#6c8ebf;" vertex="1" parent="1">
          <mxGeometry x="50" y="500" width="120" height="40" as="geometry" />
        </mxCell>
        <mxCell id="GvcO12NbnAWHYGCYTPuz-33" style="edgeStyle=orthogonalEdgeStyle;rounded=0;orthogonalLoop=1;jettySize=auto;html=1;exitX=0.5;exitY=1;exitDx=0;exitDy=0;entryX=0.5;entryY=0;entryDx=0;entryDy=0;strokeColor=#457B9D;fontColor=#1D3557;fillColor=#A8DADC;" edge="1" parent="1" source="GvcO12NbnAWHYGCYTPuz-21" target="GvcO12NbnAWHYGCYTPuz-8">
          <mxGeometry relative="1" as="geometry" />
        </mxCell>
        <mxCell id="GvcO12NbnAWHYGCYTPuz-77" style="edgeStyle=orthogonalEdgeStyle;rounded=0;orthogonalLoop=1;jettySize=auto;html=1;exitX=1;exitY=0.5;exitDx=0;exitDy=0;entryX=0;entryY=0.5;entryDx=0;entryDy=0;strokeColor=#457B9D;fontColor=#1D3557;fillColor=#A8DADC;" edge="1" parent="1" source="GvcO12NbnAWHYGCYTPuz-21" target="GvcO12NbnAWHYGCYTPuz-46">
          <mxGeometry relative="1" as="geometry" />
        </mxCell>
        <mxCell id="GvcO12NbnAWHYGCYTPuz-21" value="&lt;b&gt;是否进入用户菜单&lt;/b&gt;" style="rhombus;whiteSpace=wrap;html=1;shadow=0;fontFamily=Helvetica;fontSize=12;align=center;strokeWidth=1;spacing=6;spacingTop=-4;fillColor=#f8cecc;strokeColor=#b85450;" vertex="1" parent="1">
          <mxGeometry x="52" y="570" width="116" height="90" as="geometry" />
        </mxCell>
        <mxCell id="GvcO12NbnAWHYGCYTPuz-22" value="数据库跟新信息" style="rounded=1;whiteSpace=wrap;html=1;fontSize=12;glass=0;strokeWidth=1;shadow=0;fillColor=#dae8fc;strokeColor=#6c8ebf;" vertex="1" parent="1">
          <mxGeometry x="480" y="595" width="120" height="40" as="geometry" />
        </mxCell>
        <mxCell id="GvcO12NbnAWHYGCYTPuz-78" style="edgeStyle=orthogonalEdgeStyle;rounded=0;orthogonalLoop=1;jettySize=auto;html=1;exitX=1;exitY=0.5;exitDx=0;exitDy=0;entryX=0;entryY=0.5;entryDx=0;entryDy=0;strokeColor=#457B9D;fontColor=#1D3557;fillColor=#A8DADC;" edge="1" parent="1" source="GvcO12NbnAWHYGCYTPuz-46" target="GvcO12NbnAWHYGCYTPuz-50">
          <mxGeometry relative="1" as="geometry" />
        </mxCell>
        <mxCell id="GvcO12NbnAWHYGCYTPuz-46" value="用户列表展示" style="rounded=1;whiteSpace=wrap;html=1;fontSize=12;glass=0;strokeWidth=1;shadow=0;fillColor=#dae8fc;strokeColor=#6c8ebf;" vertex="1" parent="1">
          <mxGeometry x="190" y="595" width="120" height="40" as="geometry" />
        </mxCell>
        <mxCell id="GvcO12NbnAWHYGCYTPuz-79" style="edgeStyle=orthogonalEdgeStyle;rounded=0;orthogonalLoop=1;jettySize=auto;html=1;exitX=1;exitY=0.5;exitDx=0;exitDy=0;entryX=0;entryY=0.5;entryDx=0;entryDy=0;strokeColor=#457B9D;fontColor=#1D3557;fillColor=#A8DADC;" edge="1" parent="1" source="GvcO12NbnAWHYGCYTPuz-50" target="GvcO12NbnAWHYGCYTPuz-22">
          <mxGeometry relative="1" as="geometry" />
        </mxCell>
        <mxCell id="GvcO12NbnAWHYGCYTPuz-50" value="&lt;div style=&quot;&quot;&gt;&lt;span style=&quot;font-size: 11px; background-color: initial;&quot;&gt;是否进行增&lt;/span&gt;&lt;/div&gt;&lt;div style=&quot;&quot;&gt;&lt;span style=&quot;font-size: 11px; background-color: initial;&quot;&gt;删改查&lt;/span&gt;&lt;/div&gt;" style="rhombus;whiteSpace=wrap;html=1;shadow=0;fontFamily=Helvetica;fontSize=12;align=center;strokeWidth=1;spacing=6;spacingTop=-4;fillColor=#f8cecc;strokeColor=#b85450;" vertex="1" parent="1">
          <mxGeometry x="340" y="568.75" width="95" height="92.5" as="geometry" />
        </mxCell>
        <mxCell id="GvcO12NbnAWHYGCYTPuz-57" value="No" style="edgeStyle=orthogonalEdgeStyle;rounded=0;html=1;jettySize=auto;orthogonalLoop=1;fontSize=11;endArrow=block;endFill=0;endSize=8;strokeWidth=1;shadow=0;labelBackgroundColor=none;entryX=0.403;entryY=-0.008;entryDx=0;entryDy=0;exitX=0.5;exitY=0;exitDx=0;exitDy=0;entryPerimeter=0;" edge="1" parent="1" source="GvcO12NbnAWHYGCYTPuz-50" target="GvcO12NbnAWHYGCYTPuz-46">
          <mxGeometry x="-0.9568" y="-10" relative="1" as="geometry">
            <mxPoint as="offset" />
            <mxPoint x="460" y="390" as="sourcePoint" />
            <mxPoint x="520" y="390.41999999999996" as="targetPoint" />
            <Array as="points" />
          </mxGeometry>
        </mxCell>
        <mxCell id="GvcO12NbnAWHYGCYTPuz-82" style="edgeStyle=orthogonalEdgeStyle;rounded=0;orthogonalLoop=1;jettySize=auto;html=1;exitX=0.5;exitY=1;exitDx=0;exitDy=0;entryX=0.5;entryY=0;entryDx=0;entryDy=0;strokeColor=#457B9D;fontColor=#1D3557;fillColor=#A8DADC;" edge="1" parent="1" source="GvcO12NbnAWHYGCYTPuz-67">
          <mxGeometry relative="1" as="geometry">
            <mxPoint x="110" y="1070" as="targetPoint" />
          </mxGeometry>
        </mxCell>
        <mxCell id="GvcO12NbnAWHYGCYTPuz-67" value="&lt;b&gt;是否进入权限菜单&lt;/b&gt;" style="rhombus;whiteSpace=wrap;html=1;shadow=0;fontFamily=Helvetica;fontSize=12;align=center;strokeWidth=1;spacing=6;spacingTop=-4;fillColor=#f8cecc;strokeColor=#b85450;" vertex="1" parent="1">
          <mxGeometry x="55" y="920" width="110" height="90" as="geometry" />
        </mxCell>
        <mxCell id="GvcO12NbnAWHYGCYTPuz-69" value="No" style="edgeStyle=orthogonalEdgeStyle;rounded=0;html=1;jettySize=auto;orthogonalLoop=1;fontSize=11;endArrow=block;endFill=0;endSize=8;strokeWidth=1;shadow=0;labelBackgroundColor=none;" edge="1" parent="1">
          <mxGeometry x="-1" y="107" relative="1" as="geometry">
            <mxPoint x="-40" y="7" as="offset" />
            <mxPoint x="165" y="964.58" as="sourcePoint" />
            <mxPoint x="195" y="964.58" as="targetPoint" />
          </mxGeometry>
        </mxCell>
        <mxCell id="GvcO12NbnAWHYGCYTPuz-83" value="结束" style="rounded=1;whiteSpace=wrap;html=1;fontSize=12;glass=0;strokeWidth=1;shadow=0;fillColor=#dae8fc;strokeColor=#6c8ebf;arcSize=18;" vertex="1" parent="1">
          <mxGeometry x="52" y="1070" width="120" height="40" as="geometry" />
        </mxCell>
        <mxCell id="GvcO12NbnAWHYGCYTPuz-97" value="Yes" style="text;html=1;strokeColor=none;fillColor=none;align=center;verticalAlign=middle;whiteSpace=wrap;rounded=0;fontColor=#1D3557;" vertex="1" parent="1">
          <mxGeometry x="420" y="590" width="60" height="30" as="geometry" />
        </mxCell>
        <mxCell id="GvcO12NbnAWHYGCYTPuz-98" value="数据库跟新信息" style="rounded=1;whiteSpace=wrap;html=1;fontSize=12;glass=0;strokeWidth=1;shadow=0;fillColor=#dae8fc;strokeColor=#6c8ebf;" vertex="1" parent="1">
          <mxGeometry x="480" y="766.2900000000001" width="120" height="40" as="geometry" />
        </mxCell>
        <mxCell id="GvcO12NbnAWHYGCYTPuz-99" style="edgeStyle=orthogonalEdgeStyle;rounded=0;orthogonalLoop=1;jettySize=auto;html=1;exitX=1;exitY=0.5;exitDx=0;exitDy=0;entryX=0;entryY=0.5;entryDx=0;entryDy=0;strokeColor=#457B9D;fontColor=#1D3557;fillColor=#A8DADC;" edge="1" parent="1" source="GvcO12NbnAWHYGCYTPuz-100" target="GvcO12NbnAWHYGCYTPuz-102">
          <mxGeometry relative="1" as="geometry" />
        </mxCell>
        <mxCell id="GvcO12NbnAWHYGCYTPuz-100" value="角色列表展示" style="rounded=1;whiteSpace=wrap;html=1;fontSize=12;glass=0;strokeWidth=1;shadow=0;fillColor=#dae8fc;strokeColor=#6c8ebf;" vertex="1" parent="1">
          <mxGeometry x="190" y="766.2900000000001" width="120" height="40" as="geometry" />
        </mxCell>
        <mxCell id="GvcO12NbnAWHYGCYTPuz-101" style="edgeStyle=orthogonalEdgeStyle;rounded=0;orthogonalLoop=1;jettySize=auto;html=1;exitX=1;exitY=0.5;exitDx=0;exitDy=0;entryX=0;entryY=0.5;entryDx=0;entryDy=0;strokeColor=#457B9D;fontColor=#1D3557;fillColor=#A8DADC;" edge="1" parent="1" source="GvcO12NbnAWHYGCYTPuz-102" target="GvcO12NbnAWHYGCYTPuz-98">
          <mxGeometry relative="1" as="geometry" />
        </mxCell>
        <mxCell id="GvcO12NbnAWHYGCYTPuz-102" value="&lt;div style=&quot;&quot;&gt;&lt;span style=&quot;font-size: 11px; background-color: initial;&quot;&gt;是否进行增&lt;/span&gt;&lt;/div&gt;&lt;div style=&quot;&quot;&gt;&lt;span style=&quot;font-size: 11px; background-color: initial;&quot;&gt;删改查&lt;/span&gt;&lt;/div&gt;" style="rhombus;whiteSpace=wrap;html=1;shadow=0;fontFamily=Helvetica;fontSize=12;align=center;strokeWidth=1;spacing=6;spacingTop=-4;fillColor=#f8cecc;strokeColor=#b85450;" vertex="1" parent="1">
          <mxGeometry x="340" y="740.0400000000001" width="95" height="92.5" as="geometry" />
        </mxCell>
        <mxCell id="GvcO12NbnAWHYGCYTPuz-103" value="No" style="edgeStyle=orthogonalEdgeStyle;rounded=0;html=1;jettySize=auto;orthogonalLoop=1;fontSize=11;endArrow=block;endFill=0;endSize=8;strokeWidth=1;shadow=0;labelBackgroundColor=none;entryX=0.403;entryY=-0.008;entryDx=0;entryDy=0;exitX=0.5;exitY=0;exitDx=0;exitDy=0;entryPerimeter=0;" edge="1" parent="1" source="GvcO12NbnAWHYGCYTPuz-102" target="GvcO12NbnAWHYGCYTPuz-100">
          <mxGeometry x="-0.9568" y="-10" relative="1" as="geometry">
            <mxPoint as="offset" />
            <mxPoint x="460" y="561.2900000000001" as="sourcePoint" />
            <mxPoint x="520" y="561.71" as="targetPoint" />
            <Array as="points" />
          </mxGeometry>
        </mxCell>
        <mxCell id="GvcO12NbnAWHYGCYTPuz-104" value="Yes" style="text;html=1;strokeColor=none;fillColor=none;align=center;verticalAlign=middle;whiteSpace=wrap;rounded=0;fontColor=#1D3557;" vertex="1" parent="1">
          <mxGeometry x="420" y="761.2900000000001" width="60" height="30" as="geometry" />
        </mxCell>
        <mxCell id="GvcO12NbnAWHYGCYTPuz-105" value="数据库跟新信息" style="rounded=1;whiteSpace=wrap;html=1;fontSize=12;glass=0;strokeWidth=1;shadow=0;fillColor=#dae8fc;strokeColor=#6c8ebf;" vertex="1" parent="1">
          <mxGeometry x="480" y="943.7500000000001" width="120" height="40" as="geometry" />
        </mxCell>
        <mxCell id="GvcO12NbnAWHYGCYTPuz-106" style="edgeStyle=orthogonalEdgeStyle;rounded=0;orthogonalLoop=1;jettySize=auto;html=1;exitX=1;exitY=0.5;exitDx=0;exitDy=0;entryX=0;entryY=0.5;entryDx=0;entryDy=0;strokeColor=#457B9D;fontColor=#1D3557;fillColor=#A8DADC;" edge="1" parent="1" source="GvcO12NbnAWHYGCYTPuz-107" target="GvcO12NbnAWHYGCYTPuz-109">
          <mxGeometry relative="1" as="geometry" />
        </mxCell>
        <mxCell id="GvcO12NbnAWHYGCYTPuz-107" value="权限列表展示" style="rounded=1;whiteSpace=wrap;html=1;fontSize=12;glass=0;strokeWidth=1;shadow=0;fillColor=#dae8fc;strokeColor=#6c8ebf;" vertex="1" parent="1">
          <mxGeometry x="190" y="943.7500000000001" width="120" height="40" as="geometry" />
        </mxCell>
        <mxCell id="GvcO12NbnAWHYGCYTPuz-108" style="edgeStyle=orthogonalEdgeStyle;rounded=0;orthogonalLoop=1;jettySize=auto;html=1;exitX=1;exitY=0.5;exitDx=0;exitDy=0;entryX=0;entryY=0.5;entryDx=0;entryDy=0;strokeColor=#457B9D;fontColor=#1D3557;fillColor=#A8DADC;" edge="1" parent="1" source="GvcO12NbnAWHYGCYTPuz-109" target="GvcO12NbnAWHYGCYTPuz-105">
          <mxGeometry relative="1" as="geometry" />
        </mxCell>
        <mxCell id="GvcO12NbnAWHYGCYTPuz-109" value="&lt;div style=&quot;&quot;&gt;&lt;span style=&quot;font-size: 11px; background-color: initial;&quot;&gt;是否进行增&lt;/span&gt;&lt;/div&gt;&lt;div style=&quot;&quot;&gt;&lt;span style=&quot;font-size: 11px; background-color: initial;&quot;&gt;删改查&lt;/span&gt;&lt;/div&gt;" style="rhombus;whiteSpace=wrap;html=1;shadow=0;fontFamily=Helvetica;fontSize=12;align=center;strokeWidth=1;spacing=6;spacingTop=-4;fillColor=#f8cecc;strokeColor=#b85450;" vertex="1" parent="1">
          <mxGeometry x="340" y="917.5000000000001" width="95" height="92.5" as="geometry" />
        </mxCell>
        <mxCell id="GvcO12NbnAWHYGCYTPuz-110" value="No" style="edgeStyle=orthogonalEdgeStyle;rounded=0;html=1;jettySize=auto;orthogonalLoop=1;fontSize=11;endArrow=block;endFill=0;endSize=8;strokeWidth=1;shadow=0;labelBackgroundColor=none;entryX=0.403;entryY=-0.008;entryDx=0;entryDy=0;exitX=0.5;exitY=0;exitDx=0;exitDy=0;entryPerimeter=0;" edge="1" parent="1" source="GvcO12NbnAWHYGCYTPuz-109" target="GvcO12NbnAWHYGCYTPuz-107">
          <mxGeometry x="-0.9568" y="-10" relative="1" as="geometry">
            <mxPoint as="offset" />
            <mxPoint x="460" y="738.7500000000001" as="sourcePoint" />
            <mxPoint x="520" y="739.1700000000001" as="targetPoint" />
            <Array as="points" />
          </mxGeometry>
        </mxCell>
        <mxCell id="GvcO12NbnAWHYGCYTPuz-111" value="Yes" style="text;html=1;strokeColor=none;fillColor=none;align=center;verticalAlign=middle;whiteSpace=wrap;rounded=0;fontColor=#1D3557;" vertex="1" parent="1">
          <mxGeometry x="420" y="938.7500000000001" width="60" height="30" as="geometry" />
        </mxCell>
      </root>
    </mxGraphModel>
  </diagram>
</mxfile>
